<?xml version="1.0" encoding="UTF-8" standalone="no"?>
<svg
   xmlns:dc="http://purl.org/dc/elements/1.1/"
   xmlns:cc="http://creativecommons.org/ns#"
   xmlns:rdf="http://www.w3.org/1999/02/22-rdf-syntax-ns#"
   xmlns:svg="http://www.w3.org/2000/svg"
   xmlns="http://www.w3.org/2000/svg"
   xmlns:sodipodi="http://sodipodi.sourceforge.net/DTD/sodipodi-0.dtd"
   xmlns:inkscape="http://www.inkscape.org/namespaces/inkscape"
   width="41"
   height="63"
   viewBox="0 0 41 63"
   version="1.1"
   id="svg3787"
   sodipodi:docname="mic.svg"
   inkscape:version="0.92.4 (5da689c313, 2019-01-14)">
  <metadata
     id="metadata3791">
    <rdf:RDF>
      <cc:Work
         rdf:about="">
        <dc:format>image/svg+xml</dc:format>
        <dc:type
           rdf:resource="http://purl.org/dc/dcmitype/StillImage" />
      </cc:Work>
    </rdf:RDF>
  </metadata>
  <sodipodi:namedview
     pagecolor="#ffffff"
     bordercolor="#666666"
     borderopacity="1"
     objecttolerance="10"
     gridtolerance="10"
     guidetolerance="10"
     inkscape:pageopacity="0"
     inkscape:pageshadow="2"
     inkscape:window-width="1600"
     inkscape:window-height="877"
     id="namedview3789"
     showgrid="false"
     inkscape:snap-page="true"
     inkscape:object-paths="true"
     inkscape:object-nodes="false"
     inkscape:snap-smooth-nodes="false"
     inkscape:snap-midpoints="true"
     inkscape:zoom="2.8095238"
     inkscape:cx="-3.6936058"
     inkscape:cy="27.277234"
     inkscape:window-x="-8"
     inkscape:window-y="-8"
     inkscape:window-maximized="1"
     inkscape:current-layer="g3783" />
  <defs
     id="defs3765">
    <clipPath
       id="2fqda">
      <path
         fill="#fff"
         d="M5.985 62.01H33.93"
         id="path3753" />
    </clipPath>
    <clipPath
       id="2fqdb">
      <path
         fill="#fff"
         d="M20.978 50.949v11.079"
         id="path3756" />
    </clipPath>
    <clipPath
       id="2fqdc">
      <path
         fill="#fff"
         d="M19.873 0h.254C26.684 0 32 5.316 32 11.873v17.254C32 35.684 26.684 41 20.127 41h-.254C13.316 41 8 35.684 8 29.127V11.873C8 5.316 13.316 0 19.873 0z"
         id="path3759" />
    </clipPath>
    <clipPath
       id="2fqdd">
      <path
         fill="#fff"
         d="M.978 31.073s.69 19.923 19.515 19.923c18.824 0 19.502-20.002 19.502-20.002"
         id="path3762" />
    </clipPath>
  </defs>
  <g
     id="g3785"
     transform="translate(0.1779661)">
    <g
       id="g3783">
      <g
         id="g3769">
        <path
           stroke-miterlimit="50"
           d="M 5.985,62.01 H 33.93"
           clip-path="url(#2fqda)"
           id="path3767"
           inkscape:connector-curvature="0"
           style="fill:none;stroke:#8ac249;stroke-width:4;stroke-miterlimit:50" />
      </g>
      <g
         id="g3773">
        <path
           stroke-miterlimit="50"
           d="M 20.978,50.949 V 62.028"
           clip-path="url(#2fqdb)"
           id="path3771"
           inkscape:connector-curvature="0"
           style="fill:none;stroke:#8ac249;stroke-width:4;stroke-miterlimit:50" />
      </g>
      <g
         id="g3777">
        <path
           stroke-miterlimit="50"
           d="m 19.873,0 h 0.254 C 26.684,0 32,5.316 32,11.873 V 29.127 C 32,35.684 26.684,41 20.127,41 H 19.873 C 13.316,41 8,35.684 8,29.127 V 11.873 C 8,5.316 13.316,0 19.873,0 Z"
           clip-path="url(#2fqdc)"
           id="path3775"
           inkscape:connector-curvature="0"
           style="fill:none;stroke:#8ac249;stroke-width:4;stroke-miterlimit:50" />
      </g>
      <g
         id="g3781">
        <path
           stroke-miterlimit="50"
           d="m 0.978,31.073 v 0 c 0,0 0.69,19.923 19.515,19.923 18.824,0 19.502,-20.002 19.502,-20.002 v 0"
           clip-path="url(#2fqdd)"
           id="path3779"
           inkscape:connector-curvature="0"
           style="fill:none;stroke:#8ac249;stroke-width:4;stroke-miterlimit:50" />
      </g>
      <rect
         style="fill:#8ac249;fill-opacity:1;stroke-width:1.08988667"
         id="rect3911"
         width="2"
         height="10.690678"
         x="18.978001"
         y="50.241825" />
      <rect
         style="fill:#8ac249;fill-opacity:1;stroke-width:0.76835471"
         id="rect3913"
         width="28"
         height="2"
         x="6.0280361"
         y="59.921017" />
    </g>
  </g>
</svg>
